# xmcd
#
# Track frame offsets:
#	150
#	17973
#	32656
#	48161
#	69461
#	90061
#	114553
#	133286
#	153136
#	173486
#	192424
#
# Disc length: 2793 seconds
# Revision: 0
# Processed by: cddbd v1.5.2PL0 Copyright (c) Steve Scherf et al.
# Submitted via: dBpowerAMP V12.0
#
DISCID=830ae70b
DTITLE=Two Rivers Blues - Dirtwater Music
DYEAR=2013
DGENRE=Blues
TTITLE0=Walking Blues
TTITLE1=Time on my Side
TTITLE2=Australian Blues
TTITLE3=Rooster Song
TTITLE4=Hats at Home
TTITLE5=Old Drought Blues
TTITLE6=Death Letter Blues
TTITLE7=Ragged And Dirty
TTITLE8=Poor Boy
TTITLE9=Going With The Flow
TTITLE10=Write me a Few Lines
EXTD=
EXTT0=
EXTT1=
EXTT2=
EXTT3=
EXTT4=
EXTT5=
EXTT6=
EXTT7=
EXTT8=
EXTT9=
EXTT10=
PLAYORDER=
